# xmcd CD database file
#
# Track frame offsets:
#	150
#	19295
#	40748
#	59175
#	77930
#	101317
#	120803
#	141662
#	159278
#	177843
#	190710
#
# Disc length: 2773 seconds
#
# Revision: 0
# Processed by: cddbd v1.4PL0 Copyright (c) Steve Scherf et al.
# Submitted via: CDex 1.50
#
DISCID=8d0ad30b
DTITLE=Tony Rodriguez - ULS - United Latin for Salsa
DYEAR=1900
DGENRE=Salsa
TTITLE0=La Llorena
TTITLE1=Manana, Manana
TTITLE2=Soy Libre
TTITLE3=Tiere Candela
TTITLE4=Ahora Que Te Vas
TTITLE5=Besa y Toca
TTITLE6=Sin Tin
TTITLE7=Ciudala
TTITLE8=Ven
TTITLE9=Eres Todo Para Mi
TTITLE10=La Llorona (Verion Remix)
EXTD=
EXTT0=
EXTT1=
EXTT2=
EXTT3=
EXTT4=
EXTT5=
EXTT6=
EXTT7=
EXTT8=
EXTT9=
EXTT10=
PLAYORDER=
